<?xml version="1.0" encoding="UTF-8" standalone="no"?>
<!-- Created with Inkscape (http://www.inkscape.org/) -->

<svg
   width="256"
   height="256"
   viewBox="0 0 256 256"
   version="1.1"
   id="svg1"
   xml:space="preserve"
   xmlns="http://www.w3.org/2000/svg"
   xmlns:svg="http://www.w3.org/2000/svg"><defs
     id="defs1"><linearGradient
       id="linearGradient48"><stop
         style="stop-color:#ffffff;stop-opacity:1;"
         offset="0.5"
         id="stop48" /><stop
         style="stop-color:#dfdfdf;stop-opacity:1;"
         offset="1"
         id="stop49" /></linearGradient><radialGradient
       href="#linearGradient48"
       id="radialGradient49"
       cx="128"
       cy="128.22362"
       fx="128"
       fy="128.22362"
       r="81"
       gradientTransform="matrix(1,0,0,1.3663064,0,-48.969131)"
       gradientUnits="userSpaceOnUse" /></defs><g
     id="layer1"><path
       style="fill:url(#radialGradient49);stroke:#000000;stroke-width:2;stroke-linejoin:bevel;stroke-miterlimit:0;stroke-dasharray:none;stroke-opacity:1;paint-order:stroke fill markers"
       d="M 58,16 C 48,36 48,56 48,116 c 0,60 40,100 80,120 40,-20 80,-60 80,-120 0,-60 0,-80 -10,-100 0,0 -5,30 -20,50 C 158,76 148,76 128,76 108,76 98,76 78,66 63,46 58,16 58,16 Z"
       id="path46" /><path
       id="path47-4"
       style="fill:none;fill-opacity:1;stroke:#000000;stroke-width:4;stroke-linecap:round;stroke-linejoin:round;stroke-miterlimit:0;stroke-dasharray:none;stroke-opacity:1;paint-order:stroke fill markers"
       d="m 188,121 c -10,0 -12,0 -20,5 -8,5 -12,5 -20,5 M 68,121 c 10,0 12,0 20,5 8,5 12,5 20,5" /><path
       id="path57"
       style="display:inline;fill:#3f3f3f;fill-opacity:1;stroke:#000000;stroke-width:2;stroke-linejoin:bevel;stroke-miterlimit:0;stroke-dasharray:none;stroke-opacity:1;paint-order:stroke fill markers"
       d="m 169.04731,144 -11.85285,3.17611 8.67674,8.67674 5.78449,5.78449 -2.11692,7.90143 -7.90143,2.11692 -5.78449,-5.78449 -8.67674,-8.67674 -3.17611,11.85285 14.46123,14.46123 10.07768,-2.70018 18.65273,18.65273 -2.70018,10.07768 L 198.95269,224 218.70696,218.70696 224,198.95269 l -14.46123,-14.46123 -10.07768,2.70018 -18.65273,-18.65273 2.70018,-10.07768 z m 37.31535,52.34431 5.78449,5.7845 -2.11693,7.90142 -7.90142,2.11692 -5.78449,-5.78449 2.11692,-7.90143 z" /><path
       id="path56"
       style="display:inline;fill:#3f3f3f;fill-opacity:1;stroke:#000000;stroke-width:2;stroke-linejoin:bevel;stroke-miterlimit:0;stroke-dasharray:none;stroke-opacity:1;paint-order:stroke fill markers"
       d="m 71.999999,144.00001 c -1.859264,0 -3.717879,0.16158 -5.555924,0.48568 v 8.00008 c -4.602092,0.81121 -8.97132,2.62054 -12.799328,5.30084 l -5.656183,-5.65501 c -3.057738,2.14109 -5.715637,4.79905 -7.856678,7.85685 l 5.654881,5.65631 c -2.680236,3.8281 -4.489522,8.19742 -5.300719,12.79962 h -7.999906 c -0.648192,3.67618 -0.648192,7.43591 0,11.11209 h 7.999906 c 0.811197,4.60218 2.620483,8.97152 5.300719,12.79961 l -5.654881,5.65631 c 2.141054,3.0578 4.79894,5.71575 7.856678,7.85685 l 5.656183,-5.65631 c 3.828008,2.68029 8.197229,4.48963 12.799328,5.30084 v 8.00008 c 3.676097,0.6482 7.435751,0.64821 11.111848,0 v -8.00008 c 4.602086,-0.81121 8.971327,-2.62055 12.799329,-5.30084 l 5.656184,5.65631 c 3.057738,-2.1411 5.715624,-4.79905 7.856674,-7.85685 l -5.65488,-5.65631 c 2.68023,-3.82809 4.48952,-8.19743 5.30072,-12.79961 h 7.9999 c 0.6482,-3.67618 0.6482,-7.43591 0,-11.11209 h -7.9999 c -0.8112,-4.6022 -2.62049,-8.97152 -5.30072,-12.79962 l 5.65488,-5.65631 c -2.14105,-3.0578 -4.798936,-5.71576 -7.856674,-7.85685 l -5.656184,5.65501 c -3.828002,-2.6803 -8.197243,-4.48963 -12.799329,-5.30084 v -8.00008 c -1.838052,-0.3241 -3.696666,-0.48568 -5.555924,-0.48568 z m 0,24.00025 c 8.836443,0 15.999812,7.16351 15.999812,16.00016 0,8.83664 -7.163369,16.00017 -15.999812,16.00017 -8.836456,0 -15.999811,-7.16353 -15.999811,-16.00017 0,-8.83665 7.163355,-16.00016 15.999811,-16.00016 z" /></g></svg>
