<svg xmlns="http://www.w3.org/2000/svg" xmlns:xlink="http://www.w3.org/1999/xlink" xml:space="preserve" width="256" height="256" viewBox="0 0 256 256"><defs><radialGradient xlink:href="#a" id="b" cx="128" cy="128.224" r="81" fx="128" fy="128.224" gradientTransform="matrix(1 0 0 1.3663 0 -48.97)" gradientUnits="userSpaceOnUse"/><linearGradient id="a"><stop offset=".5" style="stop-color:#fff;stop-opacity:1"/><stop offset="1" style="stop-color:#dfdfdf;stop-opacity:1"/></linearGradient></defs><path d="M58 16C48 36 48 56 48 116s40 100 80 120c40-20 80-60 80-120s0-80-10-100c0 0-5 30-20 50-20 10-30 10-50 10s-30 0-50-10C63 46 58 16 58 16Z" style="fill:url(#b);stroke:#000;stroke-width:2;stroke-linejoin:bevel;stroke-miterlimit:0;stroke-dasharray:none;stroke-opacity:1;paint-order:stroke fill markers"/><path d="M188 121c-10 0-12 0-20 5s-12 5-20 5m-80-10c10 0 12 0 20 5s12 5 20 5" style="fill:none;fill-opacity:1;stroke:#000;stroke-width:4;stroke-linecap:round;stroke-linejoin:round;stroke-miterlimit:0;stroke-dasharray:none;stroke-opacity:1;paint-order:stroke fill markers"/><path d="m169.047 144-11.853 3.176 8.677 8.677 5.785 5.784-2.117 7.902-7.902 2.117-5.784-5.785-8.677-8.677L144 169.047l14.461 14.462 10.078-2.7 18.653 18.652-2.7 10.078L198.951 224l19.755-5.293L224 198.953l-14.461-14.462-10.078 2.7-18.653-18.652 2.7-10.078zm37.316 52.344 5.784 5.785-2.117 7.901-7.901 2.117-5.785-5.784 2.117-7.902zM72 144c-1.86 0-3.718.162-5.556.486v8a32 32 0 0 0-12.8 5.3l-5.655-5.654a32 32 0 0 0-7.857 7.856l5.655 5.657a32 32 0 0 0-5.301 12.8h-8a32 32 0 0 0 0 11.111h8a32 32 0 0 0 5.3 12.8l-5.654 5.656a32 32 0 0 0 7.857 7.857l5.656-5.656a32 32 0 0 0 12.8 5.3v8a32 32 0 0 0 11.11 0v-8a32 32 0 0 0 12.8-5.3l5.656 5.656a32 32 0 0 0 7.857-7.857l-5.655-5.656a32 32 0 0 0 5.3-12.8h8a32 32 0 0 0 0-11.112h-8a32 32 0 0 0-5.3-12.8l5.655-5.656a32 32 0 0 0-7.857-7.856l-5.656 5.655a32 32 0 0 0-12.8-5.301v-8A32 32 0 0 0 72 144zm0 24c8.836 0 16 7.164 16 16s-7.164 16-16 16-16-7.163-16-16 7.164-16 16-16z" style="display:inline;fill:#3f3f3f;fill-opacity:1;stroke:#000;stroke-width:2;stroke-linejoin:bevel;stroke-miterlimit:0;stroke-dasharray:none;stroke-opacity:1;paint-order:stroke fill markers"/></svg>